{
  "asset": {
    "generator": "Khronos glTF Blender I/O v1.6.16",
    "version": "2.0"
  },
  "scene": 0,
  "scenes": [
    {
      "name": "Scene",
      "nodes": [
        0
      ]
    }
  ],
  "nodes": [
    {
      "mesh": 0,
      "name": "frl_apartment_tv_object",
      "scale": [
        0.009999999776482582,
        0.010000000707805157,
        0.010000000707805157
      ]
    }
  ],
  "materials": [
    {
      "doubleSided": true,
      "name": "Material #1506",
      "pbrMetallicRoughness": {
        "baseColorTexture": {
          "index": 0
        },
        "metallicFactor": 0,
        "roughnessFactor": 0.23181819915771484
      }
    }
  ],
  "meshes": [
    {
      "name": "Mesh.036",
      "primitives": [
        {
          "attributes": {
            "POSITION": 0,
            "NORMAL": 1,
            "TEXCOORD_0": 2
          },
          "indices": 3,
          "material": 0
        }
      ]
    }
  ],
  "textures": [
    {
      "sampler": 0,
      "source": 0
    }
  ],
  "images": [
    {
      "mimeType": "image/png",
      "name": "Image_0",
      "uri": "Image_0.png"
    }
  ],
  "accessors": [
    {
      "bufferView": 0,
      "componentType": 5126,
      "count": 168,
      "max": [
        12.77914047241211,
        4.31268835067749,
        7.421367645263672
      ],
      "min": [
        -12.773889541625977,
        -2.2651803493499756,
        -11.466523170471191
      ],
      "type": "VEC3"
    },
    {
      "bufferView": 1,
      "componentType": 5126,
      "count": 168,
      "type": "VEC3"
    },
    {
      "bufferView": 2,
      "componentType": 5126,
      "count": 168,
      "type": "VEC2"
    },
    {
      "bufferView": 3,
      "componentType": 5123,
      "count": 168,
      "type": "SCALAR"
    }
  ],
  "bufferViews": [
    {
      "buffer": 0,
      "byteLength": 2016,
      "byteOffset": 0
    },
    {
      "buffer": 0,
      "byteLength": 2016,
      "byteOffset": 2016
    },
    {
      "buffer": 0,
      "byteLength": 1344,
      "byteOffset": 4032
    },
    {
      "buffer": 0,
      "byteLength": 336,
      "byteOffset": 5376
    }
  ],
  "samplers": [
    {
      "magFilter": 9729,
      "minFilter": 9987
    }
  ],
  "buffers": [
    {
      "byteLength": 5712,
      "uri": "frl_apartment_tv_object.bin"
    }
  ]
}